<svg width="32" height="32" viewBox="0 0 32 32" fill="none" xmlns="http://www.w3.org/2000/svg">
<path d="M18.2408 26.925C16.7208 28.5084 14.9791 30.1392 13 31.8334C4.56081 24.6292 0.333313 18.4067 0.333313 13.15C0.333313 5.26502 6.34998 0.166687 13 0.166687C19.3333 0.166687 25.0966 4.79002 25.6191 12.0417H31.2083L24.0833 19.1667L16.9583 12.0417H22.4525C21.9458 6.88002 17.9558 3.33335 13 3.33335C7.69581 3.33335 3.49998 7.40252 3.49998 13.15C3.49998 16.855 6.58748 21.7634 13 27.6217C14.0133 26.6875 14.9475 25.785 15.8025 24.9142C15.5239 24.3644 15.3775 23.7572 15.375 23.1409C15.375 22.091 15.792 21.0842 16.5343 20.3419C17.2767 19.5996 18.2835 19.1825 19.3333 19.1825C20.3831 19.1825 21.3899 19.5996 22.1323 20.3419C22.8746 21.0842 23.2916 22.091 23.2916 23.1409C23.2911 23.7531 23.1481 24.3569 22.8739 24.9043C22.5996 25.4518 22.2018 25.9279 21.7118 26.295C21.2218 26.6621 20.6531 26.9102 20.0506 27.0195C19.4482 27.1289 18.8286 27.0965 18.2408 26.925Z" fill="white"/>
</svg>
